<svg width="144" height="36" viewBox="0 0 144 36" fill="none" xmlns="http://www.w3.org/2000/svg">
<path d="M8.07824 0.316406H17.3174C20.1049 0.316406 21.8886 1.22808 22.6626 3.03929C23.4366 4.85657 23.4366 7.51259 22.6626 11.0134C21.8403 14.5143 20.6914 17.1521 19.2281 18.9146C17.7588 20.6833 15.6546 21.5646 12.9155 21.5646H10.0615L6.89311 35.495H0L8.07824 0.316406ZM11.9481 15.2193C12.7825 15.2193 13.4295 15.0674 13.883 14.7574C14.3485 14.4535 14.7113 14.0037 14.9713 13.4203C15.2253 12.8246 15.4914 11.9798 15.7695 10.8919C16.09 9.42104 16.1625 8.35741 15.9872 7.70708C15.8058 7.04459 15.2374 6.71031 14.2699 6.71031H13.496L11.5369 15.2193H11.9481Z" fill="white"/>
<path d="M28.3193 35.8111C25.4291 35.8111 23.4821 34.9967 22.4662 33.3556C21.4504 31.7207 21.3053 29.2956 22.0309 26.0865L27.9565 0.316406H34.7529L28.8756 25.7948C28.6338 26.9131 28.5431 27.7883 28.6096 28.4204C28.6882 29.0404 29.0752 29.3443 29.7705 29.3443C30.478 29.3443 31.0161 29.0464 31.391 28.4447C31.7598 27.8309 32.0682 26.9496 32.3101 25.7948L38.1632 0.316406H44.9595L39.0581 26.0865C38.3325 29.2956 37.0748 31.7207 35.285 33.3556C33.5073 34.9967 31.1854 35.8111 28.3193 35.8111Z" fill="white"/>
<path d="M48.6429 0.316406H59.3817C61.0868 0.316406 62.3203 0.705389 63.0822 1.48335C63.8561 2.26132 64.2431 3.35533 64.2431 4.7654C64.2431 6.17546 63.9892 7.97451 63.4933 10.1625C63.0398 12.1561 62.4291 13.712 61.6552 14.8303C60.8812 15.9487 59.7989 16.7266 58.4142 17.1642C59.4119 17.377 60.0589 17.9057 60.3491 18.7445C60.6394 19.5893 60.6152 20.738 60.2766 22.1967L57.1565 35.495H50.3118L53.4318 21.7348C53.6858 20.7623 53.6495 20.1424 53.3109 19.8628C52.9844 19.5893 52.3253 19.4495 51.3276 19.4495L47.6513 35.495H40.5647L48.6429 0.316406ZM54.4718 13.3473C55.4393 13.3473 56.1649 12.2898 56.6486 10.1625C56.8723 9.22655 56.9933 8.52759 57.0114 8.07175C57.0235 7.60376 56.9449 7.28163 56.7695 7.0993C56.5881 6.92304 56.2919 6.83187 55.8746 6.83187H54.2542L52.7788 13.3473H54.4718Z" fill="white"/>
<path d="M61.0088 35.495L69.087 0.316406H83.0909L81.543 7.12361H74.6499L73.0778 13.9551H79.6806L78.1569 20.5921H71.554L69.6917 28.6635H77.0201L75.4722 35.495H61.0088Z" fill="white"/>
<path d="M86.8981 35.8107C84.3343 35.8107 82.472 35.0085 81.3111 33.4039C80.1501 31.7994 79.8962 29.587 80.5371 26.7669L84.2376 10.5512C85.0599 7.06855 86.366 4.44291 88.1558 2.67426C89.9456 0.893445 92.3219 0 95.2908 0C97.8666 0 99.7773 0.717188 101.023 2.13941C102.281 3.54947 102.595 5.59163 101.966 8.26589L100.588 14.3194H93.6219L94.8312 9.1411C95.0549 8.12002 95.0852 7.42714 94.928 7.05031C94.7828 6.66133 94.408 6.46684 93.8154 6.46684C93.1865 6.46684 92.7028 6.68564 92.3642 7.12325C92.0256 7.56085 91.7596 8.20511 91.5661 9.04385L87.5028 26.694C87.3093 27.6178 87.2911 28.2924 87.4544 28.7118C87.6116 29.1372 87.9683 29.3439 88.5186 29.3439C89.5949 29.3439 90.3447 28.4626 90.7679 26.694L92.2191 20.3487H99.2815L97.7578 26.9857C96.4033 32.8691 92.7814 35.8107 86.8981 35.8107Z" fill="#FF1616"/>
<path d="M98.2236 35.495L109.664 0.316406H121.515L116.775 35.495H110.147L110.97 29.8062H106.737L105.02 35.495H98.2236ZM108.551 24.1902H111.744L114.259 6.29702H113.945L108.551 24.1902Z" fill="#FF1616"/>
<mask id="mask0_539_468" style="mask-type:luminance" maskUnits="userSpaceOnUse" x="119" y="0" width="25" height="36">
<path d="M119.723 0.213379H144V35.9998H119.723V0.213379Z" fill="white"/>
</mask>
<g mask="url(#mask0_539_468)">
<path d="M127.992 0.316406H138.731C140.436 0.316406 141.669 0.705389 142.431 1.48335C143.205 2.26132 143.592 3.35533 143.592 4.7654C143.592 6.17546 143.338 7.97451 142.842 10.1625C142.389 12.1561 141.778 13.712 141.004 14.8303C140.23 15.9487 139.148 16.7266 137.763 17.1642C138.761 17.377 139.408 17.9057 139.698 18.7445C139.988 19.5893 139.964 20.738 139.625 22.1967L136.505 35.495H129.661L132.781 21.7348C133.035 20.7623 132.998 20.1424 132.66 19.8628C132.333 19.5893 131.674 19.4495 130.676 19.4495L127 35.495H119.914L127.992 0.316406ZM133.821 13.3473C134.788 13.3473 135.514 12.2898 135.997 10.1625C136.221 9.22655 136.342 8.52759 136.36 8.07175C136.372 7.60376 136.294 7.28163 136.118 7.0993C135.937 6.92304 135.641 6.83187 135.224 6.83187H133.603L132.128 13.3473H133.821Z" fill="#FF1616"/>
</g>
</svg>
